<?xml version="1.0" encoding="UTF-8" standalone="no"?>
<!DOCTYPE svg PUBLIC "-//W3C//DTD SVG 1.1//EN" "http://www.w3.org/Graphics/SVG/1.1/DTD/svg11.dtd">
<svg version="1.1" xmlns="http://www.w3.org/2000/svg" xmlns:xlink="http://www.w3.org/1999/xlink" preserveAspectRatio="xMidYMid meet" viewBox="0 0 640 640" width="640" height="640"><defs><path d="M9.06 9.01C21.48 -2.99 41.03 -2.99 53.45 9.01C71.21 26.8 160.01 115.74 319.83 275.83C479.93 115.74 568.87 26.8 586.66 9.01C598.66 -2.99 618.63 -2.99 630.6 9.01C643.02 21.43 643.02 41.43 630.6 53.4C612.84 71.16 524.05 159.96 364.22 319.8C524.05 479.9 612.84 568.84 630.6 586.63C643.02 598.63 643.02 618.6 630.6 631.02C618.6 643.02 598.63 643.02 586.66 631.02C568.87 613.23 479.93 524.29 319.83 364.2C160.01 524.29 71.21 613.23 53.45 631.02C41.03 643.02 21.48 643.02 9.06 631.02C-2.94 618.6 -2.94 598.6 9.06 586.63C26.82 568.84 115.61 479.9 275.44 319.8L9.06 53.4C1.06 32.08 1.06 17.29 9.06 9.01Z" id="bgkv9spAU"></path></defs><g><g><g><use xlink:href="#bgkv9spAU" opacity="1" fill="#ffffff" fill-opacity="1"></use><g><use xlink:href="#bgkv9spAU" opacity="1" fill-opacity="0" stroke="#000000" stroke-width="1" stroke-opacity="0"></use></g></g></g></g></svg>